<svg width="580px" height="736px"
 viewBox="0.00 0.00 579.66 736.00" xmlns="http://www.w3.org/2000/svg" xmlns:xlink="http://www.w3.org/1999/xlink">
<g id="graph0" class="graph" transform="scale(1.0 1.0) rotate(0) translate(36 700)">
<polygon fill="white" stroke="transparent" points="-36,36 -36,-700 543.66,-700 543.66,36 -36,36"/>
<!-- https_upgrade_domain -->
<g id="node1" class="node">
<title>https_upgrade_domain</title>
<polygon fill="#caff70" stroke="transparent" points="54.5,-22 54.5,-44 188.5,-44 188.5,-22 54.5,-22"/>
<polygon fill="none" stroke="black" points="54.5,-22 54.5,-44 188.5,-44 188.5,-22 54.5,-22"/>
<text text-anchor="start" x="57.34" y="-29.4" font-family="Times,serif" font-weight="bold" font-size="14.00">https_upgrade_domain</text>
<polygon fill="none" stroke="black" points="54.5,0 54.5,-22 188.5,-22 188.5,0 54.5,0"/>
<text text-anchor="start" x="78.92" y="-7.4" font-family="Times,serif" font-weight="bold" font-size="14.00">domain: </text>
<text text-anchor="start" x="128.31" y="-7.4" font-family="Times,serif" font-weight="bold" font-style="italic" font-size="14.00">TEXT</text>
</g>
<!-- disconnect_tracker -->
<g id="node2" class="node">
<title>disconnect_tracker</title>
<polygon fill="#caff70" stroke="transparent" points="57.5,-168 57.5,-190 185.5,-190 185.5,-168 57.5,-168"/>
<polygon fill="none" stroke="black" points="57.5,-168 57.5,-190 185.5,-190 185.5,-168 57.5,-168"/>
<text text-anchor="start" x="68.64" y="-175.4" font-family="Times,serif" font-weight="bold" font-size="14.00">disconnect_tracker</text>
<polygon fill="none" stroke="black" points="57.5,-146 57.5,-168 185.5,-168 185.5,-146 57.5,-146"/>
<text text-anchor="start" x="92.15" y="-153.4" font-family="Times,serif" font-weight="bold" font-size="14.00">url: </text>
<text text-anchor="start" x="115.09" y="-153.4" font-family="Times,serif" font-weight="bold" font-style="italic" font-size="14.00">TEXT</text>
<polygon fill="none" stroke="black" points="57.5,-124 57.5,-146 185.5,-146 185.5,-124 57.5,-124"/>
<text text-anchor="start" x="75.83" y="-131.4" font-family="Times,serif" font-size="14.00">category: </text>
<text text-anchor="start" x="131.41" y="-131.4" font-family="Times,serif" font-style="italic" font-size="14.00">TEXT</text>
<polygon fill="none" stroke="black" points="57.5,-102 57.5,-124 185.5,-124 185.5,-102 57.5,-102"/>
<text text-anchor="start" x="60.27" y="-109.4" font-family="Times,serif" font-size="14.00">networkName: </text>
<text text-anchor="start" x="146.96" y="-109.4" font-family="Times,serif" font-style="italic" font-size="14.00">TEXT</text>
<polygon fill="none" stroke="black" points="57.5,-80 57.5,-102 185.5,-102 185.5,-80 57.5,-80"/>
<text text-anchor="start" x="67.66" y="-87.4" font-family="Times,serif" font-size="14.00">networkUrl: </text>
<text text-anchor="start" x="139.58" y="-87.4" font-family="Times,serif" font-style="italic" font-size="14.00">TEXT</text>
</g>
<!-- network_leaderboard -->
<g id="node3" class="node">
<title>network_leaderboard</title>
<polygon fill="#caff70" stroke="transparent" points="56.5,-270 56.5,-292 187.5,-292 187.5,-270 56.5,-270"/>
<polygon fill="none" stroke="black" points="56.5,-270 56.5,-292 187.5,-292 187.5,-270 56.5,-270"/>
<text text-anchor="start" x="62.53" y="-277.4" font-family="Times,serif" font-weight="bold" font-size="14.00">network_leaderboard</text>
<polygon fill="none" stroke="black" points="56.5,-248 56.5,-270 187.5,-270 187.5,-248 56.5,-248"/>
<text text-anchor="start" x="60.77" y="-255.4" font-family="Times,serif" font-weight="bold" font-size="14.00">networkName: </text>
<text text-anchor="start" x="147.46" y="-255.4" font-family="Times,serif" font-weight="bold" font-style="italic" font-size="14.00">TEXT</text>
<polygon fill="none" stroke="black" points="56.5,-226 56.5,-248 187.5,-248 187.5,-226 56.5,-226"/>
<text text-anchor="start" x="59.21" y="-233.4" font-family="Times,serif" font-weight="bold" font-size="14.00">domainVisited: </text>
<text text-anchor="start" x="149.03" y="-233.4" font-family="Times,serif" font-weight="bold" font-style="italic" font-size="14.00">TEXT</text>
</g>
<!-- app_configuration -->
<g id="node4" class="node">
<title>app_configuration</title>
<polygon fill="#caff70" stroke="transparent" points="0.5,-372 0.5,-394 243.5,-394 243.5,-372 0.5,-372"/>
<polygon fill="none" stroke="black" points="0.5,-372 0.5,-394 243.5,-394 243.5,-372 0.5,-372"/>
<text text-anchor="start" x="70.68" y="-379.4" font-family="Times,serif" font-weight="bold" font-size="14.00">app_configuration</text>
<polygon fill="none" stroke="black" points="0.5,-350 0.5,-372 243.5,-372 243.5,-350 0.5,-350"/>
<text text-anchor="start" x="90.32" y="-357.4" font-family="Times,serif" font-weight="bold" font-size="14.00">key: </text>
<text text-anchor="start" x="117.92" y="-357.4" font-family="Times,serif" font-weight="bold" font-style="italic" font-size="14.00">TEXT</text>
<polygon fill="none" stroke="black" points="0.5,-328 0.5,-350 243.5,-350 243.5,-328 0.5,-328"/>
<text text-anchor="start" x="3.22" y="-335.4" font-family="Times,serif" font-size="14.00">appConfigurationDownloaded: </text>
<text text-anchor="start" x="180.91" y="-335.4" font-family="Times,serif" font-style="italic" font-size="14.00">INTEGER</text>
</g>
<!-- tabs -->
<g id="node5" class="node">
<title>tabs</title>
<polygon fill="#caff70" stroke="transparent" points="405.66,-496 405.66,-518 507.66,-518 507.66,-496 405.66,-496"/>
<polygon fill="none" stroke="black" points="405.66,-496 405.66,-518 507.66,-518 507.66,-496 405.66,-496"/>
<text text-anchor="start" x="445.39" y="-503.4" font-family="Times,serif" font-weight="bold" font-size="14.00">tabs</text>
<polygon fill="none" stroke="black" points="405.66,-474 405.66,-496 507.66,-496 507.66,-474 405.66,-474"/>
<text text-anchor="start" x="420.7" y="-481.4" font-family="Times,serif" font-weight="bold" font-size="14.00">tabId: </text>
<text text-anchor="start" x="456.86" y="-481.4" font-family="Times,serif" font-weight="bold" font-style="italic" font-size="14.00">TEXT</text>
<polygon fill="none" stroke="black" points="405.66,-452 405.66,-474 507.66,-474 507.66,-452 405.66,-452"/>
<text text-anchor="start" x="427.31" y="-459.4" font-family="Times,serif" font-size="14.00">url: </text>
<text text-anchor="start" x="450.25" y="-459.4" font-family="Times,serif" font-style="italic" font-size="14.00">TEXT</text>
<polygon fill="none" stroke="black" points="405.66,-430 405.66,-452 507.66,-452 507.66,-430 405.66,-430"/>
<text text-anchor="start" x="424.19" y="-437.4" font-family="Times,serif" font-size="14.00">title: </text>
<text text-anchor="start" x="453.36" y="-437.4" font-family="Times,serif" font-style="italic" font-size="14.00">TEXT</text>
<polygon fill="#c1cdcd" stroke="transparent" points="405.66,-408 405.66,-430 507.66,-430 507.66,-408 405.66,-408"/>
<polygon fill="none" stroke="black" points="405.66,-408 405.66,-430 507.66,-430 507.66,-408 405.66,-408"/>
<text text-anchor="start" x="436.45" y="-415.4" font-family="Times,serif" font-style="italic" font-size="14.00">Indices</text>
<polygon fill="none" stroke="black" points="405.66,-386 405.66,-408 507.66,-408 507.66,-386 405.66,-386"/>
<text text-anchor="start" x="408.45" y="-392.4" font-family="Times,serif" font-size="14.00">index_tabs_tabId</text>
</g>
<!-- tab_selection -->
<g id="node6" class="node">
<title>tab_selection</title>
<polygon fill="#caff70" stroke="transparent" points="45.5,-518 45.5,-540 198.5,-540 198.5,-518 45.5,-518"/>
<polygon fill="none" stroke="black" points="45.5,-518 45.5,-540 198.5,-540 198.5,-518 45.5,-518"/>
<text text-anchor="start" x="85.07" y="-525.4" font-family="Times,serif" font-weight="bold" font-size="14.00">tab_selection</text>
<polygon fill="none" stroke="black" points="45.5,-496 45.5,-518 198.5,-518 198.5,-496 45.5,-496"/>
<text text-anchor="start" x="82.93" y="-503.4" font-family="Times,serif" font-weight="bold" font-size="14.00">id: </text>
<text text-anchor="start" x="101.21" y="-503.4" font-family="Times,serif" font-weight="bold" font-style="italic" font-size="14.00">INTEGER</text>
<polygon fill="none" stroke="black" points="45.5,-474 45.5,-496 198.5,-496 198.5,-474 45.5,-474"/>
<text text-anchor="start" x="86.04" y="-481.4" font-family="Times,serif" font-size="14.00">tabId: </text>
<text text-anchor="start" x="122.2" y="-481.4" font-family="Times,serif" font-style="italic" font-size="14.00">TEXT</text>
<polygon fill="#c1cdcd" stroke="transparent" points="45.5,-452 45.5,-474 198.5,-474 198.5,-452 45.5,-452"/>
<polygon fill="none" stroke="black" points="45.5,-452 45.5,-474 198.5,-474 198.5,-452 45.5,-452"/>
<text text-anchor="start" x="101.79" y="-459.4" font-family="Times,serif" font-style="italic" font-size="14.00">Indices</text>
<polygon fill="none" stroke="black" points="45.5,-430 45.5,-452 198.5,-452 198.5,-430 45.5,-430"/>
<text text-anchor="start" x="48.13" y="-436.4" font-family="Times,serif" font-size="14.00">index_tab_selection_tabId</text>
</g>
<!-- tab_selection&#45;&gt;tabs -->
<g id="edge1" class="edge">
<title>tab_selection:tabId&#45;&gt;tabs:tabId</title>
<path fill="none" stroke="black" stroke-dasharray="5,2" d="M199.5,-485C287.64,-485 312.19,-485 395.48,-485"/>
<polygon fill="black" stroke="black" points="395.66,-488.5 405.66,-485 395.66,-481.5 395.66,-488.5"/>
<text text-anchor="middle" x="324.33" y="-489.2" font-family="Times,serif" font-size="14.00">1&#45;1</text>
</g>
<!-- bookmarks -->
<g id="node7" class="node">
<title>bookmarks</title>
<polygon fill="#caff70" stroke="transparent" points="79.5,-642 79.5,-664 163.5,-664 163.5,-642 79.5,-642"/>
<polygon fill="none" stroke="black" points="79.5,-642 79.5,-664 163.5,-664 163.5,-642 79.5,-642"/>
<text text-anchor="start" x="90.39" y="-649.4" font-family="Times,serif" font-weight="bold" font-size="14.00">bookmarks</text>
<polygon fill="none" stroke="black" points="79.5,-620 79.5,-642 163.5,-642 163.5,-620 79.5,-620"/>
<text text-anchor="start" x="82.43" y="-627.4" font-family="Times,serif" font-weight="bold" font-size="14.00">id: </text>
<text text-anchor="start" x="100.71" y="-627.4" font-family="Times,serif" font-weight="bold" font-style="italic" font-size="14.00">INTEGER</text>
<polygon fill="none" stroke="black" points="79.5,-598 79.5,-620 163.5,-620 163.5,-598 79.5,-598"/>
<text text-anchor="start" x="89.03" y="-605.4" font-family="Times,serif" font-size="14.00">title: </text>
<text text-anchor="start" x="118.2" y="-605.4" font-family="Times,serif" font-style="italic" font-size="14.00">TEXT</text>
<polygon fill="none" stroke="black" points="79.5,-576 79.5,-598 163.5,-598 163.5,-576 79.5,-576"/>
<text text-anchor="start" x="92.15" y="-583.4" font-family="Times,serif" font-size="14.00">url: </text>
<text text-anchor="start" x="115.09" y="-583.4" font-family="Times,serif" font-style="italic" font-size="14.00">TEXT</text>
</g>
</g>
</svg>
