<svg width="128" height="128" viewBox="0 0 128 128" fill="none" xmlns="http://www.w3.org/2000/svg">
<path fill-rule="evenodd" clip-rule="evenodd" d="M64 128C99.3462 128 128 99.3463 128 64C128 28.6538 99.3462 0 64 0C28.6538 0 0 28.6538 0 64C0 99.3463 28.6538 128 64 128Z" fill="#DE5833"/>
<path fill-rule="evenodd" clip-rule="evenodd" d="M73.0002 111.75C73.0002 111.25 73.1229 111.136 71.5336 107.968C67.3096 99.5092 63.0642 87.5839 64.9949 79.8932C65.3469 78.4959 61.0163 28.1492 57.9549 26.5279C54.5523 24.7146 50.3656 21.838 46.5363 21.198C44.5934 20.8872 42.046 21.0344 40.0545 21.3026C39.7006 21.3503 39.686 21.9865 40.0242 22.1011C41.3316 22.544 42.9192 23.3131 43.8548 24.4759C44.0319 24.696 43.7942 25.0422 43.5119 25.0526C42.63 25.0853 41.03 25.455 38.9191 27.248C38.675 27.4553 38.8778 27.8404 39.192 27.7782C43.7285 26.8807 48.3616 27.3229 51.0919 29.8046C51.2691 29.9656 51.1765 30.2546 50.9454 30.3174C27.2513 36.7564 31.9417 57.3676 38.2494 82.6611C43.8678 105.191 45.9821 112.453 46.6488 114.665C46.7133 114.879 46.8639 115.049 47.0718 115.132C55.2281 118.38 73.0002 118.524 73.0002 113V111.75Z" fill="#DDDDDD"/>
<path fill-rule="evenodd" clip-rule="evenodd" d="M122.75 64C122.75 96.4467 96.4467 122.75 64 122.75C31.5533 122.75 5.25 96.4467 5.25 64C5.25 31.5533 31.5533 5.25 64 5.25C96.4467 5.25 122.75 31.5533 122.75 64ZM50.2892 115.986C48.6657 110.97 44.1286 96.4346 39.6473 78.0651C39.498 77.453 39.3489 76.8438 39.2005 76.2377L39.1968 76.2225C33.7724 54.0665 29.342 35.9701 53.6238 30.285C53.8458 30.233 53.9544 29.9676 53.8074 29.7933C51.0214 26.4882 45.8023 25.4049 39.2029 27.6816C38.9322 27.775 38.6972 27.502 38.8653 27.2703C40.1594 25.4865 42.6884 24.1151 43.9368 23.5138C44.1949 23.3896 44.1792 23.0117 43.9059 22.9262C43.0892 22.6705 41.6988 22.2793 40.1347 22.0269C39.7647 21.9672 39.7313 21.333 40.1028 21.283C49.4586 20.0243 59.2283 22.8331 64.1308 29.0087C64.177 29.0669 64.2437 29.1075 64.3163 29.1231C82.2691 32.9785 83.5546 61.3581 81.4865 62.6507C81.0788 62.9055 79.772 62.7593 78.0484 62.5664C71.063 61.7849 57.2305 60.2372 68.6469 81.5137C68.7596 81.7239 68.6104 82.002 68.3747 82.0387C61.9589 83.0363 70.13 103.073 76.1872 116.362C100.002 110.842 117.75 89.4935 117.75 64C117.75 34.3147 93.6853 10.25 64 10.25C34.3147 10.25 10.25 34.3147 10.25 64C10.25 88.9468 27.2452 109.924 50.2892 115.986Z" fill="white"/>
<path d="M84.2802 90.698C82.9135 90.0647 77.6585 93.8333 74.1707 96.7262C73.4417 95.695 72.0673 94.9453 68.967 95.4843C66.2535 95.9562 64.7556 96.6104 64.0872 97.7384C59.8043 96.1146 52.5991 93.6086 50.8585 96.0288C48.9557 98.6743 51.334 111.189 53.8611 112.814C55.1806 113.663 61.4917 109.606 64.7874 106.809C65.3191 107.558 66.1752 107.987 67.9351 107.946C70.5966 107.884 74.9136 107.265 75.5836 106.025C75.6243 105.95 75.6593 105.861 75.6892 105.759C79.0766 107.025 85.0385 108.365 86.3705 108.165C89.8414 107.644 85.887 91.4425 84.2802 90.698Z" fill="#3CA82B"/>
<path d="M74.4902 97.0965C74.6339 97.3528 74.7494 97.6231 74.8477 97.8979C75.3306 99.2485 76.1174 103.545 75.5224 104.606C74.9274 105.668 71.063 106.18 68.6791 106.221C66.2952 106.262 65.7585 105.39 65.2756 104.04C64.8893 102.959 64.6991 100.419 64.7037 98.9647C64.606 96.8073 65.3943 96.0488 69.0377 95.4592C71.734 95.0229 73.1595 95.5303 73.9824 96.3988C77.8102 93.5418 84.1971 89.51 84.82 90.2468C87.9261 93.921 88.3187 102.667 87.6461 106.186C87.4262 107.337 77.1412 105.047 77.1412 103.806C77.1412 98.6543 75.8045 97.2411 74.4902 97.0965Z" fill="#4CBA3C"/>
<path d="M51.9605 95.4878C52.8028 94.1546 59.6339 95.8125 63.3837 97.4813C63.3837 97.4813 62.6131 100.972 63.8399 105.085C64.1987 106.288 55.213 111.643 54.0401 110.722C52.6846 109.657 50.1899 98.29 51.9605 95.4878Z" fill="#4CBA3C"/>
<path fill-rule="evenodd" clip-rule="evenodd" d="M55.2689 68.4065C55.8216 66.0032 58.3962 61.4744 67.59 61.5844C72.238 61.565 78.0116 61.5824 81.8394 61.1476C87.5286 60.5013 91.7516 59.1252 94.5656 58.0526C98.5454 56.5342 99.9577 56.8728 100.453 57.7814C100.997 58.7796 100.356 60.5033 98.9652 62.09C96.309 65.1209 91.5339 67.4694 83.1003 68.1665C74.6668 68.8635 69.0796 66.6013 66.6746 70.2844C65.6373 71.873 66.4392 75.6169 74.595 76.7958C85.6159 78.3864 94.6672 74.8793 95.7856 76.9974C96.904 79.1155 90.4617 83.4249 79.4229 83.5152C68.3842 83.6054 61.4892 79.6503 59.0441 77.6843C55.9419 75.19 54.5536 71.5522 55.2689 68.4065Z" fill="#FFCC33"/>
<g opacity="0.8">
<path d="M69.327 42.127C69.9427 41.1188 71.3081 40.3406 73.5426 40.3406C75.777 40.3406 76.8282 41.2297 77.5559 42.2212C77.704 42.4229 77.4797 42.6603 77.2501 42.561C77.1949 42.5371 77.1389 42.5127 77.0821 42.4879C76.2649 42.131 75.2615 41.6927 73.5426 41.6683C71.7041 41.6421 70.5449 42.1026 69.8148 42.4994C69.5688 42.6332 69.1811 42.366 69.327 42.127Z" fill="#14307E"/>
<path d="M44.1708 43.4169C46.3405 42.5102 48.0457 42.6274 49.2513 42.9126C49.5051 42.9726 49.6815 42.6995 49.4785 42.5357C48.5428 41.781 46.4487 40.8441 43.7175 41.8625C41.2811 42.771 40.1328 44.6585 40.126 45.8996C40.1244 46.192 40.7261 46.2168 40.8817 45.9692C41.3022 45.3003 42.0012 44.3236 44.1708 43.4169Z" fill="#14307E"/>
<path fill-rule="evenodd" clip-rule="evenodd" d="M75.4405 55.9197C73.5224 55.9197 71.9665 54.3681 71.9665 52.4585C71.9665 50.5488 73.5224 48.9973 75.4405 48.9973C77.3587 48.9973 78.9146 50.5488 78.9146 52.4585C78.9146 54.3681 77.3587 55.9197 75.4405 55.9197ZM77.8873 51.3119C77.8873 50.8174 77.4823 50.4167 76.9879 50.4167C76.4934 50.4167 76.0927 50.8174 76.0885 51.3119C76.0885 51.8063 76.4934 52.207 76.9879 52.207C77.4866 52.207 77.8873 51.8063 77.8873 51.3119Z" fill="#14307E"/>
<path fill-rule="evenodd" clip-rule="evenodd" d="M52.4234 54.8539C52.4234 57.0833 50.6118 58.8906 48.374 58.8906C46.1404 58.8906 44.3245 57.0833 44.3245 54.8539C44.3245 52.6246 46.1404 50.8172 48.374 50.8172C50.6075 50.8172 52.4234 52.6246 52.4234 54.8539ZM51.2299 53.5155C51.2299 52.94 50.761 52.4711 50.1813 52.4711C49.6058 52.4711 49.137 52.9358 49.1327 53.5155C49.1327 54.0909 49.6016 54.5598 50.1813 54.5598C50.761 54.5598 51.2299 54.0909 51.2299 53.5155Z" fill="#14307E"/>
</g>
</svg>
